<?xml version="1.0" encoding="UTF-8"?>
<svg id="Layer_1" data-name="Layer 1" xmlns="http://www.w3.org/2000/svg" viewBox="0 0 668.53 175.3">
  <defs>
    <style>
      .cls-1 {
        fill: #ffbe00;
      }
    </style>
  </defs>
  <circle cx="574.16" cy="126.28" r="6.76"/>
  <g>
    <path class="cls-1" d="M213.02,170.92c-8.92-4.67-18.54-8.18-28.67-10.32-7.49-1.58-15.25-2.41-23.21-2.41-6.24,0-12.36.51-18.32,1.5-7.06,1.16-13.89,2.98-20.44,5.4-1.51.56-3.01,1.15-4.49,1.77-7.93,3.33-16.2,5.91-24.74,7.03-4.1.54-8.29.82-12.54.82-6.1,0-12.07-.58-17.84-1.68-3.93-.73-7.77-1.72-11.51-2.94-1.23-.39-2.43-.81-3.64-1.26-2.11-.77-4.18-1.62-6.22-2.54-1.4-.76-2.77-1.55-4.12-2.39-2.23-1.35-4.39-2.81-6.5-4.34-5.52-4.01-10.59-8.62-15.11-13.72-6.38-7.16-11.69-15.3-15.68-24.16,14.64,7.95,31.42,12.45,49.26,12.46,3.72,0,7.39-.2,11-.58,0,0,0,0,0,0,1.36-.14,2.71-.3,4.05-.5,0,0,0,0,0,0,2.81-.4,5.58-.93,8.31-1.55l.35-.08.16-.04c.93-.21,1.86-.45,2.78-.7l.07-.02,14.01-3.53,22.8-5.75s0,0,0,0c0,0,.02,0,.03-.02h.03s.07-.02.07-.02l1.88-.47c7.49-1.83,15.32-2.8,23.36-2.8,3.6,0,7.17.2,10.67.58,5.68.99,11.18,2.48,16.46,4.44,1.07.39,2.13.8,3.18,1.23,1.08.55,2.14,1.13,3.19,1.73.13.07.26.13.38.21,17.91,10.19,32.31,25.82,40.96,44.66Z"/>
    <path class="cls-1" d="M190.78,132.28c-6.55-5.49-13.9-10.15-21.92-13.76-5.92-2.67-12.22-4.76-18.82-6.21-5.17-1.13-10.34-1.82-15.47-2.08-6.07-.32-12.07-.05-17.94.77-1.59.22-3.18.49-4.76.79-2.56.49-5.12,1.02-7.71,1.23-7.82.64-15.86.15-23.93-1.61-5.06-1.11-9.91-2.67-14.5-4.63-3.13-1.32-6.14-2.84-9.02-4.52-.95-.54-1.87-1.11-2.79-1.7-1.61-1.02-3.17-2.1-4.7-3.24-1.02-.88-2.02-1.79-2.99-2.73-1.61-1.52-3.14-3.12-4.6-4.78-3.85-4.33-7.22-9.07-10.05-14.12-4-7.1-6.92-14.81-8.63-22.89,10.71,9.25,23.81,16.03,38.61,19.26,3.09.67,6.16,1.18,9.23,1.52,0,0,0,0,0,0,1.15.13,2.3.24,3.45.32,0,0,0,0,0,0,2.4.17,4.8.24,7.18.22h.3s.14,0,.14,0c.81,0,1.62-.04,2.43-.08h.06s12.26-.39,12.26-.39l19.96-.64s0,0,0,0c0,0,.02,0,.03,0h.03s.06,0,.06,0l1.64-.05c6.54-.16,13.22.46,19.89,1.92,2.99.65,5.91,1.46,8.75,2.41,4.53,1.85,8.83,4.09,12.85,6.67.82.51,1.62,1.05,2.41,1.6.79.65,1.57,1.32,2.34,2.01.1.08.19.16.28.24,13.01,11.7,22.13,27.28,25.89,44.48Z"/>
    <path class="cls-1" d="M177.11,93.4c-4.59-5.64-9.99-10.72-16.11-15.02-4.52-3.18-9.45-5.95-14.73-8.21-4.14-1.78-8.35-3.18-12.6-4.23-5.02-1.24-10.08-1.98-15.12-2.24-1.37-.07-2.74-.1-4.1-.1-2.22,0-4.44.03-6.65-.21-6.64-.72-13.29-2.42-19.74-5.19-4.05-1.74-7.85-3.82-11.38-6.2-2.4-1.61-4.67-3.36-6.81-5.23-.7-.61-1.39-1.23-2.06-1.87-1.18-1.11-2.31-2.27-3.41-3.46-.71-.9-1.4-1.82-2.06-2.76-1.1-1.53-2.12-3.12-3.08-4.74-2.52-4.24-4.58-8.74-6.13-13.42-2.2-6.58-3.41-13.5-3.53-20.52,7.46,9.45,17.33,17.23,29.18,22.31,2.47,1.06,4.96,1.97,7.47,2.75,0,0,0,0,0,0,.94.29,1.88.57,2.83.82,0,0,0,0,0,0,1.98.53,3.97.97,5.96,1.33l.25.04.12.02c.68.12,1.36.23,2.05.33h.05s10.31,1.66,10.31,1.66l16.78,2.67s0,0,0,0c0,0,.01,0,.03,0h.02s.05.01.05.01l1.38.22c5.5.91,10.97,2.51,16.32,4.8,2.39,1.03,4.7,2.17,6.92,3.42,3.49,2.27,6.72,4.84,9.67,7.64.6.56,1.19,1.14,1.76,1.72.56.67,1.1,1.36,1.63,2.06.07.08.13.16.19.24,8.99,11.87,14.11,26.36,14.49,41.34Z"/>
  </g>
  <g>
    <path d="M444.24,133.03h-18.41s-2.4-43.44-2.4-43.44c-.83-14.71-1.47-31.98-1.94-46.13h-.35c-2.84,13.6-6.7,28.28-10.94,42.16l-14.33,48.28h-17.49s-14.33-48.28-14.33-48.28c-4.24-13.88-8.1-28.56-10.94-42.16h-.35c-.46,14.15-1.11,31.42-1.94,46.13l-2.4,43.44h-18.41s7.19-108.63,7.19-108.63h25.95s14.08,43.95,14.08,43.95c3.86,12.71,7.32,25.45,9.9,37.45,2.58-12,6.04-24.74,9.9-37.45l14.08-43.95h25.95s7.19,108.63,7.19,108.63Z"/>
    <path d="M276.02,70.39c-13.99-5.35-20.05-9.12-20.05-17.17,0-6.16,5.15-12.63,17.31-12.63,9.85,0,17.16,3,20.95,4.98l4.58-15.45c-5.45-2.76-13.76-5.19-25.13-5.19-22.74,0-37.1,12.93-37.1,30.1,0,15.02,11.07,24.31,28.38,30.46,13.28,4.82,18.58,9.48,18.58,17.4,0,8.57-6.84,14.31-19.05,14.31-9.77,0-19.16-3.12-25.34-6.68l-4.24,15.86c5.72,3.51,17.23,6.66,28.34,6.66,27.05,0,39.75-14.62,39.75-31.49,0-15.07-8.76-24.21-26.97-31.16Z"/>
    <path d="M513.41,70.39c-14-5.35-20.05-9.12-20.05-17.17,0-6.16,5.15-12.63,17.31-12.63,9.84,0,17.15,3,20.95,4.98l4.58-15.45c-5.47-2.76-13.77-5.19-25.13-5.19-22.74,0-37.1,12.93-37.1,30.1,0,15.02,11.06,24.31,28.38,30.46,13.26,4.82,18.58,9.48,18.58,17.4,0,8.57-6.84,14.31-19.06,14.31-9.76,0-19.16-3.12-25.34-6.68l-4.24,15.86c5.73,3.51,17.24,6.66,28.34,6.66,27.06,0,39.75-14.62,39.75-31.49,0-15.07-8.76-24.21-26.96-31.16Z"/>
    <path d="M615.57,38.84c-4.5,0-7.65,3.42-7.64,7.64-.01,4.17,2.97,7.63,7.41,7.63,4.87,0,7.82-3.45,7.81-7.63-.03-4.29-3.01-7.64-7.58-7.64ZM609.44,65.56v67.47s12.21,0,12.21,0v-67.47s-12.21,0-12.21,0Z"/>
    <path d="M665.12,64.02c-8.2,0-15.64,5.72-18.79,14.78h-.43s-.47-13.24-.47-13.24h-10.76c.37,6.26.56,13.05.56,21.02v46.45s12.21,0,12.21,0v-36.05c0-1.99.18-4,.49-5.72,1.67-9.19,7.78-15.71,16.43-15.71,1.69,0,2.93.1,4.17.36v-11.53c-1.12-.27-2.08-.35-3.41-.35Z"/>
  </g>
  <g>
    <path d="M236.08,152.35v22.58h-1.61v-22.58h1.61Z"/>
    <path d="M245.56,152.69c1.74-.3,3.65-.5,5.8-.5,4.12,0,7.24,1.11,9.11,3.08,1.81,1.88,2.81,4.42,2.81,7.84s-.9,6.3-2.95,8.54c-1.98,2.18-5.39,3.45-9.75,3.45-1.74,0-3.38-.03-5.03-.2v-22.21ZM247.17,173.59c.9.13,2.21.17,3.65.17,7.24,0,10.82-4.05,10.82-10.59.07-5.73-3.12-9.65-10.39-9.65-1.74,0-3.12.17-4.09.37v19.7Z"/>
    <path d="M281.88,163.71h-9.01v9.88h10.08v1.34h-11.69v-22.58h11.16v1.34h-9.55v8.68h9.01v1.34Z"/>
    <path d="M292.5,152.35v9.95h12.46v-9.95h1.61v22.58h-1.61v-11.29h-12.46v11.29h-1.61v-22.58h1.61Z"/>
    <path d="M316.02,152.62c1.31-.23,2.95-.44,4.86-.44,2.68,0,4.72.7,5.96,1.91,1.11,1.04,1.74,2.55,1.74,4.42s-.54,3.38-1.57,4.52c-1.44,1.64-3.85,2.51-6.63,2.51-1.04,0-1.94-.03-2.75-.27v9.65h-1.61v-22.31ZM317.63,163.88c.77.27,1.78.33,2.88.33,4.05,0,6.47-1.94,6.47-5.53s-2.58-5.16-6.16-5.16c-1.47,0-2.58.13-3.18.27v10.08Z"/>
    <path d="M336.26,167.03l-2.78,7.91h-1.64l8.17-22.58h1.54l8.11,22.58h-1.64l-2.85-7.91h-8.91ZM344.7,165.69l-2.75-7.54c-.57-1.57-.87-2.71-1.17-3.99h-.1c-.3,1.31-.67,2.48-1.17,3.92l-2.75,7.6h7.94Z"/>
    <path d="M357.16,152.69c1.41-.33,3.32-.5,4.89-.5,2.95,0,4.82.64,6.1,1.91.97.9,1.57,2.41,1.57,3.99,0,3.05-1.81,4.99-4.42,5.9v.07c1.81.57,2.95,2.28,3.48,4.79.77,3.52,1.21,5.19,1.68,6.1h-1.64c-.37-.67-.84-2.65-1.44-5.49-.7-3.25-2.11-4.72-5.09-4.86h-3.52v10.35h-1.61v-22.25ZM358.77,163.27h3.59c3.48,0,5.76-1.94,5.76-4.92,0-3.45-2.55-4.86-6.1-4.86-1.54,0-2.68.17-3.25.3v9.48Z"/>
    <path d="M378.1,152.69c1.74-.3,3.65-.5,5.8-.5,4.12,0,7.24,1.11,9.11,3.08,1.81,1.88,2.81,4.42,2.81,7.84s-.9,6.3-2.95,8.54c-1.98,2.18-5.39,3.45-9.75,3.45-1.74,0-3.38-.03-5.03-.2v-22.21ZM379.71,173.59c.9.13,2.21.17,3.65.17,7.24,0,10.82-4.05,10.82-10.59.07-5.73-3.12-9.65-10.39-9.65-1.74,0-3.12.17-4.09.37v19.7Z"/>
    <path d="M406.08,167.03l-2.78,7.91h-1.64l8.18-22.58h1.54l8.11,22.58h-1.64l-2.85-7.91h-8.91ZM414.52,165.69l-2.75-7.54c-.57-1.57-.87-2.71-1.17-3.99h-.1c-.3,1.31-.67,2.48-1.17,3.92l-2.75,7.6h7.94Z"/>
    <path d="M425.41,173.9l13.6-20.1v-.1h-12.5v-1.34h14.54v1.07l-13.64,20.07v.1h13.8v1.34h-15.81v-1.04Z"/>
    <path d="M451.58,167.03l-2.78,7.91h-1.64l8.18-22.58h1.54l8.11,22.58h-1.64l-2.85-7.91h-8.91ZM460.02,165.69l-2.75-7.54c-.57-1.57-.87-2.71-1.17-3.99h-.1c-.3,1.31-.67,2.48-1.17,3.92l-2.75,7.6h7.94Z"/>
    <path d="M472.52,174.93v-22.58h1.51l8.78,13.33c1.84,2.81,3.15,4.92,4.25,7.1l.07-.03c-.23-3.05-.27-5.63-.27-9.18v-11.22h1.54v22.58h-1.47l-8.61-13.13c-1.67-2.61-3.22-4.99-4.39-7.3l-.07.03c.17,2.78.2,5.23.2,8.98v11.42h-1.54Z"/>
    <path d="M523.88,174.13c-1.14.57-3.32,1.14-6.1,1.14-5.46,0-10.69-3.48-10.69-11.49,0-6.7,4.32-11.79,11.46-11.79,2.88,0,4.56.64,5.23,1.01l-.5,1.34c-1.14-.57-2.78-.97-4.69-.97-6.1,0-9.82,3.95-9.82,10.45,0,6.13,3.48,10.08,9.55,10.08,1.91,0,3.79-.4,5.09-1.04l.47,1.27Z"/>
    <path d="M549.68,163.41c0,7.97-4.89,11.89-10.12,11.89-5.56,0-9.88-4.39-9.88-11.46s4.49-11.89,10.15-11.89,9.85,4.46,9.85,11.46ZM531.35,163.81c0,5.09,2.95,10.15,8.31,10.15s8.34-4.86,8.34-10.45c0-4.79-2.61-10.22-8.28-10.22s-8.38,5.23-8.38,10.52Z"/>
    <path d="M576.71,164.21c-.2-3.38-.47-7.54-.47-9.98h-.07c-.84,2.44-1.74,5.06-3.05,8.41l-4.76,12.3h-1.11l-4.46-11.99c-1.27-3.52-2.25-6.23-2.91-8.71h-.07c-.07,2.65-.23,6.57-.5,10.32l-.7,10.39h-1.57l1.64-22.58h1.84l4.86,13c1.07,2.88,1.84,5.16,2.48,7.34h.1c.57-2.08,1.37-4.29,2.51-7.3l5.06-13.03h1.91l1.51,22.58h-1.57l-.67-10.72Z"/>
    <path d="M587.74,152.62c1.31-.23,2.95-.44,4.86-.44,2.68,0,4.72.7,5.96,1.91,1.11,1.04,1.74,2.55,1.74,4.42s-.54,3.38-1.57,4.52c-1.44,1.64-3.85,2.51-6.63,2.51-1.04,0-1.94-.03-2.75-.27v9.65h-1.61v-22.31ZM589.35,163.88c.77.27,1.78.33,2.88.33,4.05,0,6.47-1.94,6.47-5.53s-2.58-5.16-6.16-5.16c-1.47,0-2.58.13-3.18.27v10.08Z"/>
    <path d="M607.97,167.03l-2.78,7.91h-1.64l8.18-22.58h1.54l8.11,22.58h-1.64l-2.85-7.91h-8.91ZM616.42,165.69l-2.75-7.54c-.57-1.57-.87-2.71-1.17-3.99h-.1c-.3,1.31-.67,2.48-1.17,3.92l-2.75,7.6h7.94Z"/>
    <path d="M628.92,174.93v-22.58h1.51l8.78,13.33c1.84,2.81,3.15,4.92,4.25,7.1l.07-.03c-.23-3.05-.27-5.63-.27-9.18v-11.22h1.54v22.58h-1.47l-8.61-13.13c-1.67-2.61-3.22-4.99-4.39-7.3l-.07.03c.17,2.78.2,5.23.2,8.98v11.42h-1.54Z"/>
    <path d="M659.24,174.93v-9.78l-7.17-12.8h1.78l3.72,6.73c.97,1.78,1.78,3.25,2.58,4.86h.07c.67-1.51,1.61-3.08,2.61-4.89l3.85-6.7h1.78l-7.61,12.83v9.75h-1.61Z"/>
  </g>
</svg>